# xmcd
#
# Track frame offsets:
#	150
#	21315
#	43322
#	65898
#	88821
#	105344
#	128825
#	154835
#	179809
#	206343
#
# Disc length: 3047 seconds
#
# Revision: 1
# Processed by: cddbd v1.5.2PL0 Copyright (c) Steve Scherf et al.
# Submitted via: EZCDAudioConverter 8.0.2.1
#
DISCID=910be50a
DTITLE=Minh Thuận, Mỹ Tâm - Lời Nguyện Cầu Trong Đêm
DYEAR=2008
DGENRE=blues
TTITLE0=Minh Thuận - Yêu vội
TTITLE1=Minh Thuận - Con tim tình si
TTITLE2=Minh Thuận, Mỹ Tâm - Trái tim an bình
TTITLE3=Mỹ Tâm - Thầm yêu
TTITLE4=Minh Thuận, Mỹ Tâm - Này cô em mắt nhung
TTITLE5=Minh Thuận - Phố xưa mùa đông
TTITLE6=Minh Thuận, Mỹ Tâm - Lời Nguyện Cầu Trong Đêm
TTITLE7=Mỹ Tâm - Quanh tôi là bóng tối
TTITLE8=Minh Thuận, Mỹ Tâm - Mùa thu
TTITLE9=Minh Thuận - Tàn phai
EXTD=
EXTT0=
EXTT1=
EXTT2=
EXTT3=
EXTT4=
EXTT5=
EXTT6=
EXTT7=
EXTT8=
EXTT9=
PLAYORDER=
